<svg width="176" height="40" viewBox="0 0 176 40" fill="none" xmlns="http://www.w3.org/2000/svg">
<path d="M34.1422 5.85781C30.3647 2.08031 25.3422 0 20 0C14.6578 0 9.63531 2.08031 5.85781 5.85781C2.08031 9.63531 0 14.6578 0 20C0 25.3422 2.08039 30.3646 5.85781 34.1422C9.63523 37.9198 14.6578 40 20 40C25.3422 40 30.3647 37.9197 34.1422 34.1422C37.9197 30.3647 40 25.3422 40 20C40 14.6578 37.9196 9.63539 34.1422 5.85781Z" fill="#33CC95"/>
<g clip-path="url(#clip0_114812_178)">
<path d="M20.5714 8V33.1429" stroke="white" stroke-width="2" stroke-linecap="round" stroke-linejoin="round"/>
<path d="M26.2857 12.5714H17.7143C16.6534 12.5714 15.636 12.9929 14.8859 13.743C14.1357 14.4931 13.7143 15.5106 13.7143 16.5714C13.7143 17.6323 14.1357 18.6497 14.8859 19.3999C15.636 20.15 16.6534 20.5714 17.7143 20.5714H23.4286C24.4894 20.5714 25.5069 20.9929 26.257 21.743C27.0072 22.4932 27.4286 23.5106 27.4286 24.5714C27.4286 25.6323 27.0072 26.6497 26.257 27.3999C25.5069 28.15 24.4894 28.5714 23.4286 28.5714H13.7143" stroke="white" stroke-width="2" stroke-linecap="round" stroke-linejoin="round"/>
</g>
<path d="M68.42 11.248V28H65.06V17.104L60.572 28H58.028L53.516 17.104V28H50.156V11.248H53.972L59.3 23.704L64.628 11.248H68.42ZM84.4619 14.704L76.2299 34.288H72.6539L75.5339 27.664L70.2059 14.704H73.9739L77.4059 23.992L80.8859 14.704H84.4619ZM108.504 14.512C110.136 14.512 111.448 15.016 112.44 16.024C113.448 17.016 113.952 18.408 113.952 20.2V28H110.592V20.656C110.592 19.616 110.328 18.824 109.8 18.28C109.272 17.72 108.552 17.44 107.64 17.44C106.728 17.44 106 17.72 105.456 18.28C104.928 18.824 104.664 19.616 104.664 20.656V28H101.304V20.656C101.304 19.616 101.04 18.824 100.512 18.28C99.9839 17.72 99.2639 17.44 98.3519 17.44C97.4239 17.44 96.6879 17.72 96.1439 18.28C95.6159 18.824 95.3519 19.616 95.3519 20.656V28H91.9919V14.704H95.3519V16.312C95.7839 15.752 96.3359 15.312 97.0079 14.992C97.6959 14.672 98.4479 14.512 99.2639 14.512C100.304 14.512 101.232 14.736 102.048 15.184C102.864 15.616 103.496 16.24 103.944 17.056C104.376 16.288 105 15.672 105.816 15.208C106.648 14.744 107.544 14.512 108.504 14.512ZM123.044 28.216C121.764 28.216 120.612 27.936 119.588 27.376C118.564 26.8 117.756 25.992 117.164 24.952C116.588 23.912 116.3 22.712 116.3 21.352C116.3 19.992 116.596 18.792 117.188 17.752C117.796 16.712 118.62 15.912 119.66 15.352C120.7 14.776 121.86 14.488 123.14 14.488C124.42 14.488 125.58 14.776 126.62 15.352C127.66 15.912 128.476 16.712 129.068 17.752C129.676 18.792 129.98 19.992 129.98 21.352C129.98 22.712 129.668 23.912 129.044 24.952C128.436 25.992 127.604 26.8 126.548 27.376C125.508 27.936 124.34 28.216 123.044 28.216ZM123.044 25.288C123.652 25.288 124.22 25.144 124.748 24.856C125.292 24.552 125.724 24.104 126.044 23.512C126.364 22.92 126.524 22.2 126.524 21.352C126.524 20.088 126.188 19.12 125.516 18.448C124.86 17.76 124.052 17.416 123.092 17.416C122.132 17.416 121.324 17.76 120.668 18.448C120.028 19.12 119.708 20.088 119.708 21.352C119.708 22.616 120.02 23.592 120.644 24.28C121.284 24.952 122.084 25.288 123.044 25.288ZM139.813 14.512C141.397 14.512 142.677 15.016 143.653 16.024C144.629 17.016 145.117 18.408 145.117 20.2V28H141.757V20.656C141.757 19.6 141.493 18.792 140.965 18.232C140.437 17.656 139.717 17.368 138.805 17.368C137.877 17.368 137.141 17.656 136.597 18.232C136.069 18.792 135.805 19.6 135.805 20.656V28H132.445V14.704H135.805V16.36C136.253 15.784 136.821 15.336 137.509 15.016C138.213 14.68 138.981 14.512 139.813 14.512ZM160.672 21.064C160.672 21.544 160.64 21.976 160.576 22.36H150.856C150.936 23.32 151.272 24.072 151.864 24.616C152.456 25.16 153.184 25.432 154.048 25.432C155.296 25.432 156.184 24.896 156.712 23.824H160.336C159.952 25.104 159.216 26.16 158.128 26.992C157.04 27.808 155.704 28.216 154.12 28.216C152.84 28.216 151.688 27.936 150.664 27.376C149.656 26.8 148.864 25.992 148.288 24.952C147.728 23.912 147.448 22.712 147.448 21.352C147.448 19.976 147.728 18.768 148.288 17.728C148.848 16.688 149.632 15.888 150.64 15.328C151.648 14.768 152.808 14.488 154.12 14.488C155.384 14.488 156.512 14.76 157.504 15.304C158.512 15.848 159.288 16.624 159.832 17.632C160.392 18.624 160.672 19.768 160.672 21.064ZM157.192 20.104C157.176 19.24 156.864 18.552 156.256 18.04C155.648 17.512 154.904 17.248 154.024 17.248C153.192 17.248 152.488 17.504 151.912 18.016C151.352 18.512 151.008 19.208 150.88 20.104H157.192ZM175.845 14.704L167.613 34.288H164.037L166.917 27.664L161.589 14.704H165.357L168.789 23.992L172.269 14.704H175.845Z" fill="white"/>
<defs>
<clipPath id="clip0_114812_178">
<rect width="27.4286" height="27.4286" fill="white" transform="translate(6.85715 6.85714)"/>
</clipPath>
</defs>
</svg>
